<svg width="25" height="25" viewBox="0 0 25 25" fill="none" xmlns="http://www.w3.org/2000/svg">
<path d="M21.6601 12.5587C21.6601 12.2976 21.7638 12.0472 21.9484 11.8625C22.1331 11.6779 22.3835 11.5742 22.6446 11.5742C22.9057 11.5742 23.1562 11.6779 23.3408 11.8625C23.5254 12.0472 23.6292 12.2976 23.6292 12.5587V23.3888C23.6292 23.6499 23.5254 23.9003 23.3408 24.0849C23.1562 24.2696 22.9057 24.3733 22.6446 24.3733H0.984548C0.72343 24.3733 0.473006 24.2696 0.288368 24.0849C0.103729 23.9003 0 23.6499 0 23.3888V1.72869C0 1.46757 0.103729 1.21715 0.288368 1.03251C0.473006 0.84787 0.72343 0.744141 0.984548 0.744141H11.8146C12.0757 0.744141 12.3261 0.84787 12.5108 1.03251C12.6954 1.21715 12.7991 1.46757 12.7991 1.72869C12.7991 1.98981 12.6954 2.24023 12.5108 2.42487C12.3261 2.60951 12.0757 2.71324 11.8146 2.71324H1.9691V22.4042H21.6601V12.5587Z" fill="#3139FB"/>
<path d="M10.521 13.8589L12.1455 13.6265L22.1249 3.64909C22.2189 3.55827 22.2939 3.44963 22.3455 3.32951C22.3971 3.20939 22.4242 3.0802 22.4254 2.94947C22.4265 2.81874 22.4016 2.6891 22.3521 2.5681C22.3026 2.4471 22.2295 2.33718 22.1371 2.24474C22.0446 2.15229 21.9347 2.07919 21.8137 2.02968C21.6927 1.98018 21.563 1.95527 21.4323 1.95641C21.3016 1.95754 21.1724 1.9847 21.0523 2.0363C20.9322 2.0879 20.8235 2.1629 20.7327 2.25694L10.7513 12.2344L10.519 13.8589H10.521ZM23.517 0.862818C23.7915 1.13711 24.0092 1.46281 24.1578 1.82128C24.3063 2.17976 24.3828 2.56399 24.3828 2.95203C24.3828 3.34007 24.3063 3.7243 24.1578 4.08278C24.0092 4.44125 23.7915 4.76695 23.517 5.04124L13.3072 15.251C13.1567 15.4021 12.9611 15.5002 12.75 15.5306L9.50097 15.9953C9.34956 16.0171 9.19516 16.0032 9.05002 15.9549C8.90488 15.9066 8.773 15.8251 8.66483 15.717C8.55667 15.6088 8.47519 15.4769 8.42687 15.3318C8.37855 15.1866 8.36472 15.0322 8.38646 14.8808L8.85117 11.6318C8.881 11.4209 8.97843 11.2254 9.12881 11.0746L19.3405 0.864788C19.8944 0.311064 20.6456 0 21.4288 0C22.212 0 22.9631 0.311064 23.517 0.864788V0.862818Z" fill="#3139FB"/>
</svg>
