<svg width="25" height="25" viewBox="0 0 25 25" fill="none" xmlns="http://www.w3.org/2000/svg">
<path d="M22.2774 12.5592C22.2774 12.2981 22.3811 12.0477 22.5657 11.863C22.7504 11.6784 23.0008 11.5747 23.2619 11.5747C23.523 11.5747 23.7735 11.6784 23.9581 11.863C24.1427 12.0477 24.2465 12.2981 24.2465 12.5592V23.3892C24.2465 23.6504 24.1427 23.9008 23.9581 24.0854C23.7735 24.2701 23.523 24.3738 23.2619 24.3738H1.60186C1.34074 24.3738 1.09032 24.2701 0.905677 24.0854C0.721039 23.9008 0.61731 23.6504 0.61731 23.3892V1.72918C0.61731 1.46806 0.721039 1.21764 0.905677 1.033C1.09032 0.848358 1.34074 0.744629 1.60186 0.744629H12.4319C12.693 0.744629 12.9434 0.848358 13.1281 1.033C13.3127 1.21764 13.4164 1.46806 13.4164 1.72918C13.4164 1.9903 13.3127 2.24072 13.1281 2.42536C12.9434 2.61 12.693 2.71373 12.4319 2.71373H2.58641V22.4047H22.2774V12.5592Z" fill="#FFFCEC"/>
<path d="M11.1383 13.8589L12.7628 13.6265L22.7422 3.64909C22.8362 3.55827 22.9112 3.44963 22.9628 3.32951C23.0144 3.20939 23.0416 3.0802 23.0427 2.94947C23.0438 2.81874 23.0189 2.6891 22.9694 2.5681C22.9199 2.4471 22.8468 2.33718 22.7544 2.24474C22.6619 2.15229 22.552 2.07919 22.431 2.02968C22.31 1.98018 22.1804 1.95527 22.0496 1.95641C21.9189 1.95754 21.7897 1.9847 21.6696 2.0363C21.5495 2.0879 21.4408 2.1629 21.35 2.25694L11.3687 12.2344L11.1363 13.8589H11.1383ZM24.1343 0.862818C24.4088 1.13711 24.6265 1.46281 24.7751 1.82128C24.9236 2.17976 25.0001 2.56399 25.0001 2.95203C25.0001 3.34007 24.9236 3.7243 24.7751 4.08278C24.6265 4.44125 24.4088 4.76695 24.1343 5.04124L13.9245 15.251C13.774 15.4021 13.5784 15.5002 13.3673 15.5306L10.1183 15.9953C9.96687 16.0171 9.81247 16.0032 9.66733 15.9549C9.52219 15.9066 9.39031 15.8251 9.28214 15.717C9.17398 15.6088 9.0925 15.4769 9.04418 15.3318C8.99586 15.1866 8.98203 15.0322 9.00377 14.8808L9.46848 11.6318C9.49831 11.4209 9.59574 11.2254 9.74612 11.0746L19.9579 0.864788C20.5117 0.311064 21.2629 0 22.0461 0C22.8293 0 23.5804 0.311064 24.1343 0.864788V0.862818Z" fill="#FFFCEC"/>
</svg>
